<?xml version="1.0" encoding="utf-8" ?><svg xmlns="http://www.w3.org/2000/svg" xmlns:xlink="http://www.w3.org/1999/xlink" width="1024" height="1024" viewBox="0 0 1024 1024"><path fill="#F2F0E5" d="M0 0L1024 0L1024 1024L0 1024L0 0Z"/><path fill="#382D20" d="M504.973 209.541C620.433 205.104 717.644 295.077 722.135 410.535C726.626 525.993 636.698 623.246 521.241 627.79C405.709 632.338 308.38 542.338 303.885 426.804C299.391 311.27 389.436 213.982 504.973 209.541Z"/><path fill="#F2F0E5" d="M421.006 287.335C422.111 287.899 431.725 305.227 433.508 308.214C461.842 355.682 513.583 376.55 567.059 376.15C592.692 375.958 612.413 371.53 635.481 360.514C635.88 400.476 635.986 440.44 635.799 480.404C604.857 461.48 569.095 455.781 533.565 462.103C480.001 472.332 444.574 501.188 419.977 549.135C419.089 548.316 418.223 547.474 417.38 546.609C351.366 479.422 354.435 352.991 421.006 287.335Z"/><path fill="#CB8C34" d="M512.561 229.211C568.881 226.577 631.995 258.547 663.058 305.481C657.128 309.081 655.541 310.15 650.919 315.205C644.412 313.767 638.642 313 632.06 312.38L627.937 307.212C621.451 299.175 612.41 293.599 602.317 291.409C589.928 288.846 581.597 292.425 571.513 299.012C565.173 298.958 558.833 299.027 552.497 299.219C544.607 291.163 537.375 285.588 526.293 282.335C516.1 279.344 513.312 281.211 504.827 274.151C501.02 253.907 493.829 245.189 475.877 235.652C489.768 231.679 498.213 230.014 512.561 229.211Z"/><path fill="#E0725D" d="M615.347 527.726C615.857 527.671 617.172 527.494 617.544 527.774C621.953 531.085 626.399 536.042 631.156 538.809C638.386 543.014 647.668 543.241 655.647 543.354C641.363 562.862 611.691 583.079 589.177 592.405C583.267 594.852 571.965 599.186 565.37 600.7C564.918 600.519 564.465 600.337 564.013 600.156C550.647 587.306 536.481 574.452 523.4 561.416C530.43 555.416 532.413 551.579 536.066 543.225C547.574 539.532 550.376 543.701 562.052 543.8C577.945 543.935 586.561 539.096 597.658 528.534C603.558 528.358 609.455 528.088 615.347 527.726Z"/><path fill="#CB8C34" d="M456.237 536.825C456.929 537.483 458.174 541.163 458.456 542.157C464.086 561.978 484.222 575.633 504.948 569.904L543.516 606.182C502.323 611.271 472.751 607.123 434.099 591.504C411.506 582.587 384.766 561.477 369.864 542.43C374.496 540.94 377.246 539.363 381.457 536.967C388.608 547.87 396.915 557.307 406.091 566.487C408.553 568.712 412.033 574.024 414.667 575.73C422.756 582.58 441.378 572.248 443.278 563.386C446.014 550.63 448.371 547.67 456.237 536.825Z"/><path fill="#E0725D" d="M675.402 363.885C681.123 379.235 682.968 388.818 685.875 404.889C691.1 405.688 694.98 407.447 698.135 411.731C703.655 419.225 701.092 430.065 693.363 434.908C691.155 436.291 688.081 437.236 685.566 438.07C678.017 459.578 671.933 471.822 659.875 491.46C663.296 495.142 665.376 498.795 665.081 504.03C664.798 508.415 662.723 512.49 659.342 515.297C655.91 518.206 651.453 519.615 646.973 519.208C638.822 518.397 634.636 512.571 631.735 505.629C614.726 505.657 596.04 506.751 579.518 506.492C579.685 504.03 579.517 502.917 579.218 500.445C595.533 499.206 616.11 499.163 632.536 499.269C637.248 488.686 643.171 485.519 654.678 487.611C664.222 471.201 672.852 454.782 679.288 436.872C675.736 434.874 672.952 432.925 670.698 429.44C668.337 425.842 667.614 421.411 668.711 417.249C670.307 411.209 674.231 408.383 679.259 405.582C677.512 393.601 673.529 377.722 669.421 366.459L675.402 363.885Z"/><path fill="#3D9970" d="M471.785 290.797C443.262 300.685 438.296 266.137 457.625 260.249C462.329 258.777 467.431 259.294 471.745 261.68C481.34 267.093 481.952 276.889 476.873 285.73L508.281 311.181C521.568 304.648 530.801 308.711 534.724 322.953C548.496 324.464 564.879 325.226 578.814 326.159C577.925 329.348 577.856 330.175 577.633 333.38C573.438 332.466 566.007 332.187 561.509 331.869L533.908 329.913C531.689 333.609 530.124 336.037 526.152 338.237C522.025 340.522 517.126 340.958 512.661 339.438C502.457 336.048 499.918 326.165 503.567 316.796C495.85 309.086 480.799 297.829 471.785 290.797Z"/><path fill="#CB8C34" d="M578.814 326.159C581.339 321.256 584.235 317.722 589.835 316.081C594.11 314.827 598.712 315.374 602.574 317.595C608.133 320.801 610.555 325.917 611.307 332.068C625.714 334.358 639.405 338.636 652.426 340.823C656.68 336.976 660.488 334.214 666.672 334.543C671.002 334.791 675.056 336.746 677.946 339.98C680.863 343.219 682.311 347.52 681.946 351.863C681.528 356.784 678.991 360.647 675.402 363.885L669.421 366.459C655.666 368.759 649.713 359.391 649.608 346.95C636.487 344.291 623.129 341.247 610.024 338.404C609.624 339.087 609.216 339.764 608.798 340.436C600.207 354.229 581.022 350.5 577.633 333.38C577.856 330.175 577.925 329.348 578.814 326.159Z"/><path fill="#3D9970" d="M350.566 351.778C347.844 348.55 345.848 345.589 345.348 341.238C344.921 337.678 345.982 334.099 348.282 331.347C357.002 320.762 375.932 325.07 375.792 339.93C375.678 352.006 367.261 355.225 356.624 354.929C350.881 373.177 347.82 386.195 345 405.077C359.695 413.1 359.957 428.833 344.513 436.377C342.52 436.564 339.772 436.909 337.837 436.857C330.638 435.433 324.674 431.141 323.313 423.552C322.537 419.303 323.539 414.921 326.086 411.432C329.181 407.248 333.237 405.584 338.193 404.802C340.076 386.643 344.987 369.058 350.566 351.778Z"/><path fill="#CB8C34" d="M337.837 436.857C339.772 436.909 342.52 436.564 344.513 436.377C347.442 452.759 350.848 470.982 356.962 486.528C367.512 485.96 376.587 490.169 376.714 501.98C376.954 524.535 344.4 523.806 344.201 502.006C344.144 497.456 347.277 492.76 350.517 489.707C343.38 469.018 341.811 457.624 337.837 436.857Z"/><path fill="#3D9970" d="M546.973 506.752C546.51 499.334 549.664 492.646 556.567 489.348C560.134 487.601 564.262 487.393 567.987 488.773C573.825 490.877 576.682 495.079 579.218 500.445C579.517 502.917 579.685 504.03 579.518 506.492C577.436 512.105 575.322 516.381 569.288 519.02C565.356 520.714 560.901 520.714 556.97 519.02C553.71 517.648 551.462 515.652 549.141 513.046C536.576 518.143 523.8 523.637 511.237 528.567C510.906 526.669 510.236 524.846 509.259 523.186C518.994 518.335 536.697 510.502 546.973 506.752Z"/><path fill="#CB8C34" d="M511.237 528.567C512.661 536.743 507.613 544.655 499.597 546.808C491.582 548.961 483.248 544.642 480.385 536.853C477.522 529.063 481.075 520.375 488.577 516.825C496.078 513.274 505.049 516.033 509.259 523.186C510.236 524.846 510.906 526.669 511.237 528.567Z"/><path fill="#3D9970" d="M456.331 237.658L456.691 237.911C456.013 238.493 455.788 238.638 454.956 238.958C420.384 252.228 401.908 277.652 379.54 304.914C375.986 303.45 373.86 302.924 370.106 301.973L367.704 301.369L367.274 300.539C368.37 298.414 370.503 295.919 372.129 294.064C390.731 272.841 412.969 254.638 439.254 243.821C444.814 241.533 450.485 239.095 456.331 237.658Z"/><path fill="#382D20" d="M374.818 705.377C398.623 702.273 420.457 719.001 423.656 742.793C426.854 766.586 410.213 788.486 386.433 791.779C362.519 795.09 340.469 778.335 337.253 754.408C334.036 730.482 350.879 708.498 374.818 705.377Z"/><path fill="#F2F0E5" d="M379.083 723.553C392.864 722.815 404.666 733.321 405.529 747.095C406.392 760.869 395.995 772.766 382.229 773.754C368.285 774.756 356.2 764.194 355.326 750.241C354.451 736.288 365.123 724.3 379.083 723.553Z"/><path fill="#382D20" d="M440.027 707.695C461.69 708.402 493.195 703.405 509.847 719.162C526.45 734.872 525.73 761.161 510.319 777.539C497.049 790.063 482.667 789.3 465.854 789.18C457.24 789.061 448.625 789.055 440.012 789.161L440.027 707.695Z"/><path fill="#F2F0E5" d="M460.082 723.889C464.483 723.849 470.449 724.192 474.674 723.858C498.779 721.952 510.533 749.356 494.628 766.633C484.708 775.253 472.85 773.502 460.151 773.49C460.023 756.957 460 740.423 460.082 723.889Z"/><path fill="#382D20" d="M743.065 707.547C748.944 707.637 754.824 707.672 760.704 707.652C761.718 732.942 760.974 763.514 761.008 789.196C754.717 789.057 748.423 789.105 742.135 789.341L742.081 770.625C742.041 761.73 742.301 750.115 741.587 741.465C733.748 754.071 726.874 768.447 719.057 780.951L709.556 781.008C706.863 777.045 703.629 770.725 701.126 766.3C696.589 758.314 691.882 750.425 687.008 742.64L687.343 789.158C681.189 789.162 675.035 789.202 668.882 789.28L668.846 736.175C668.841 729.327 668.401 714.661 669.053 708.378C670.176 707.492 670.516 707.814 672.31 707.763C676.794 707.655 681.497 707.736 685.999 707.744C695.556 723.285 705.338 741.46 714.602 757.464C724.241 740.912 733.73 724.272 743.065 707.547Z"/><path fill="#382D20" d="M604.2 707.761C610.51 708.003 617.429 707.832 623.798 707.784C636.103 733.596 647.997 762.737 659.942 789.21C653.433 788.977 645.485 789.253 638.869 789.318L631.713 772L624.185 772.014L595.766 771.915C593.28 777.549 590.911 783.707 588.598 789.456C581.884 789.145 575.152 789.315 568.429 789.397C575.675 772.468 583.02 755.581 590.466 738.739C594.651 729.187 599.566 716.872 604.2 707.761Z"/><path fill="#F2F0E5" d="M613.698 727.862C615.606 730.106 623.813 752.545 625.574 757.07L614.746 757.092L602.165 757.231L613.698 727.862Z"/><path fill="#382D20" d="M269.79 707.913C276.469 707.941 283.148 707.91 289.826 707.822C290.16 729.456 289.924 751.774 289.931 773.463L331.148 773.468C331.158 776.086 331.645 788.066 330.383 789.356C322.544 788.808 312.098 789.151 304.085 789.129C292.972 789.097 281.007 788.892 269.958 789.347C269.76 762.203 269.704 735.058 269.79 707.913Z"/><path fill="#382D20" d="M533.024 748.064L564.105 748.022C564.327 752.944 564.36 758.066 564.462 763.008C554.077 762.83 543.368 762.982 532.96 763.003L533.024 748.064Z"/></svg>