<?xml version="1.0" encoding="UTF-8" standalone="no"?>
<svg
   width="1024"
   height="1024"
   viewBox="0 0 1024 1024"
   version="1.1"
   id="svg23"
   sodipodi:docname="logo.svg"
   inkscape:version="1.4.4 (dcaf3e7d9e, 2026-05-05)"
   xmlns:inkscape="http://www.inkscape.org/namespaces/inkscape"
   xmlns:sodipodi="http://sodipodi.sourceforge.net/DTD/sodipodi-0.dtd"
   xmlns="http://www.w3.org/2000/svg"
   xmlns:svg="http://www.w3.org/2000/svg">
  <defs
     id="defs23" />
  <sodipodi:namedview
     id="namedview23"
     pagecolor="#ffffff"
     bordercolor="#000000"
     borderopacity="0.25"
     inkscape:showpageshadow="2"
     inkscape:pageopacity="0.0"
     inkscape:pagecheckerboard="0"
     inkscape:deskcolor="#d1d1d1"
     inkscape:zoom="0.53585436"
     inkscape:cx="454.41452"
     inkscape:cy="730.60897"
     inkscape:window-width="1271"
     inkscape:window-height="1402"
     inkscape:window-x="0"
     inkscape:window-y="0"
     inkscape:window-maximized="0"
     inkscape:current-layer="svg23" />
  <path
     fill="#F2F0E5"
     d="M0 0L1024 0L1024 1024L0 1024L0 0Z"
     id="path1"
     style="fill:#ffffff;fill-opacity:0" />
  <path
     fill="#382d20"
     d="M 491.96206,30.587718 C 754.13221,20.51281 974.86512,224.81069 985.06264,486.9763 995.26017,749.1419 791.06446,969.97018 528.90112,980.28805 266.56749,990.615 45.566649,786.2558 35.360042,523.91763 25.155706,261.57946 229.61708,40.67171 491.96206,30.587718 Z"
     id="path2"
     style="stroke-width:2.27066" />
  <path
     fill="#f2f0e5"
     d="m 301.30174,207.23126 c 2.50908,1.28065 24.33918,40.62661 28.38777,47.40907 64.33681,107.78358 181.82292,155.16766 303.24861,154.2594 58.20377,-0.43596 102.98341,-10.49044 155.36295,-35.504 0.90599,90.74002 1.14668,181.48459 0.72207,272.22916 C 718.76444,602.65496 637.56118,589.71448 556.88471,604.06958 435.2592,627.29614 354.8166,692.81824 298.96523,801.68947 296.94889,799.8298 294.9825,797.9179 293.06834,795.95378 143.17314,643.3951 150.14179,356.31357 301.30174,207.23126 Z"
     id="path3"
     style="stroke-width:2.27066" />
  <path
     fill="#cb8c34"
     d="M 509.19181,75.251557 C 637.07526,69.270644 780.38555,141.86357 850.919,248.43462 c -13.465,8.17437 -17.06854,10.6017 -27.56352,22.07987 -14.77517,-3.2652 -27.87686,-5.0068 -42.82233,-6.4146 l -9.36193,-11.73476 c -14.72748,-18.24928 -35.2565,-30.91047 -58.17425,-35.88321 -28.13118,-5.81969 -47.04803,2.30699 -69.94534,17.26381 -14.39597,-0.12261 -28.79194,0.0341 -43.17883,0.47003 -17.91549,-18.29242 -34.33688,-30.95134 -59.50031,-38.33779 -23.14482,-6.79153 -29.47541,-2.55222 -48.74194,-18.58305 -8.6444,-45.9672 -24.9727,-65.76279 -65.73555,-87.418057 31.54171,-9.021323 50.71742,-12.801968 83.29681,-14.625306 z"
     id="path4"
     style="stroke-width:2.27066" />
  <path
     fill="#e0725d"
     d="m 742.58364,753.07695 c 1.15804,-0.12488 4.14395,-0.52679 4.98864,0.109 10.01133,7.51814 20.10667,18.77379 30.90819,25.0567 16.41686,9.54812 37.4931,10.06356 55.61068,10.32014 -32.43407,44.29599 -99.80903,90.20188 -150.93062,111.37804 -13.41959,5.5563 -39.08256,15.39733 -54.05755,18.8351 -1.02634,-0.41099 -2.05495,-0.82425 -3.08128,-1.23523 -30.34961,-29.17796 -62.51575,-58.36499 -92.21823,-87.96529 15.96273,-13.62394 20.46544,-22.33646 28.76015,-41.30553 26.13073,-8.38554 32.49312,1.08083 59.00532,1.30563 36.08756,0.30654 55.65155,-10.68118 80.84904,-34.66387 13.39688,-0.39963 26.78695,-1.01271 40.16566,-1.83469 z"
     id="path5"
     style="stroke-width:2.27066" />
  <path
     fill="#cb8c34"
     d="m 381.29929,773.73767 c 1.57129,1.49409 4.39826,9.85011 5.03858,12.10715 12.78381,45.0067 58.50577,76.01254 105.56743,63.00394 l 87.57472,82.37492 c -93.5352,11.55538 -160.68309,2.13669 -248.44856,-33.32872 -51.30097,-20.24745 -112.01836,-68.18104 -145.8557,-111.43025 10.51769,-3.38328 16.762,-6.96411 26.32374,-12.40461 16.23747,24.75698 35.09983,46.18518 55.93538,67.02982 5.59036,5.05221 13.49225,17.11395 19.47316,20.98769 18.36735,15.554 60.65154,-7.90643 64.96579,-28.029 6.21252,-28.96451 11.56446,-35.68566 29.42546,-60.31094 z"
     id="path6"
     style="stroke-width:2.27066" />
  <path
     fill="#e0725d"
     d="m 878.948,381.05011 c 12.99043,34.8546 17.17979,56.61431 23.78059,93.10606 11.86419,1.81425 20.67434,5.80834 27.83827,15.53584 12.53403,17.01631 6.71433,41.63024 -10.83558,52.62703 -5.01361,3.14032 -11.99362,5.28609 -17.70432,7.17982 -17.14119,48.83731 -30.95588,76.63924 -58.33547,121.23042 7.76792,8.36056 12.49089,16.65527 11.82105,28.54217 -0.6426,9.95683 -5.35421,19.20976 -13.03131,25.5835 -7.7929,6.60534 -17.91322,9.8047 -28.08576,8.88054 -18.50814,-1.8415 -28.01311,-15.07035 -34.60029,-30.83326 -38.62162,0.0636 -81.05113,2.54768 -118.56693,1.95958 0.3792,-5.59036 -0.002,-8.11761 -0.6812,-13.73067 37.04578,-2.81335 83.7691,-2.91098 121.06693,-2.67029 10.69934,-24.03038 24.14844,-31.22155 50.2769,-26.47133 21.67116,-37.2615 41.26694,-74.54343 55.88089,-115.21091 -8.06538,-4.53677 -14.38689,-8.96228 -19.50495,-16.87553 -5.36102,-8.16982 -7.00271,-18.23111 -4.5118,-27.68158 3.62397,-13.71478 12.53403,-20.13166 23.9509,-26.49177 -3.96684,-27.20475 -13.01087,-63.26052 -22.33873,-88.83494 z"
     id="path7"
     style="stroke-width:2.27066" />
  <path
     fill="#3d9970"
     d="m 416.60347,215.09228 c -64.76597,22.45226 -76.04206,-55.99441 -32.15251,-69.36405 10.68117,-3.34241 22.26607,-2.16848 32.06169,3.24931 21.78696,12.29107 23.1766,34.53444 11.64393,54.60932 l 71.31682,57.79051 c 30.17023,-14.83421 51.13521,-5.60853 60.043,26.73018 31.2715,3.43096 68.47169,5.16121 100.1133,7.27973 -2.01861,7.24113 -2.17529,9.11896 -2.68164,16.39642 -9.52541,-2.07538 -26.39867,-2.7089 -36.61209,-3.43096 l -62.67243,-4.44141 c -5.03858,8.39235 -8.59216,13.90551 -17.61122,18.90095 -9.371,5.18846 -20.49495,6.17846 -30.63344,2.72706 -23.16979,-7.69753 -28.93499,-30.13844 -20.64936,-51.41223 -17.52267,-17.50677 -51.69834,-43.06757 -72.16605,-59.03483 z"
     id="path8"
     style="stroke-width:2.27066" />
  <path
     fill="#cb8c34"
     d="m 659.6297,295.38728 c 5.73341,-11.13304 12.30924,-19.15754 25.02492,-22.88369 9.70706,-2.8474 20.15663,-1.60535 28.92591,3.43778 12.62259,7.27972 18.12212,18.89641 19.82966,32.86323 32.71336,5.1998 63.80094,14.91368 93.36717,19.8796 9.65938,-8.73522 18.30605,-15.00677 32.34779,-14.25973 9.83195,0.56313 19.0372,5.00226 25.5994,12.34557 6.62351,7.35466 9.91142,17.12076 9.08263,26.98223 -0.94914,11.1739 -6.70979,19.94545 -14.85918,27.29784 l -13.58081,5.84468 c -31.2329,5.22251 -44.75012,-16.04901 -44.98854,-44.29827 -29.7933,-6.03767 -60.12475,-12.94956 -89.88172,-19.40504 -0.90826,1.55086 -1.83469,3.0881 -2.78382,4.61398 -19.50723,31.31918 -63.0698,22.8519 -70.76505,-16.02176 0.50635,-7.27746 0.66303,-9.15529 2.68164,-16.39642 z"
     id="path9"
     style="stroke-width:2.27066" />
  <path
     fill="#3d9970"
     d="m 141.35662,353.55926 c -6.18073,-7.32968 -10.71297,-14.0531 -11.84829,-23.93273 -0.96958,-8.08354 1.43959,-16.21023 6.66211,-22.45908 19.80013,-24.03491 62.78367,-14.25292 62.46578,19.48906 -0.25885,27.42046 -19.37097,34.72971 -43.52396,34.05759 -13.04039,41.43497 -19.99087,70.99439 -26.39412,113.86895 33.36731,18.21749 33.96222,53.94174 -1.10581,71.07159 -4.52542,0.42461 -10.76519,1.20799 -15.15892,1.08991 -16.34646,-3.23341 -29.888663,-12.97908 -32.979029,-30.2111 -1.76203,-9.64802 0.513169,-19.59805 6.296534,-27.52037 7.027686,-9.50043 16.237475,-13.27881 27.490855,-15.05446 4.27565,-41.23288 15.42685,-81.16239 28.09485,-120.39936 z"
     id="path10"
     style="stroke-width:2.27066" />
  <path
     fill="#cb8c34"
     d="m 112.45341,546.74455 c 4.39373,0.11808 10.6335,-0.6653 15.15892,-1.08991 6.65075,37.19791 14.38461,78.57611 28.26741,113.87575 23.95544,-1.28973 44.56165,8.26747 44.85003,35.08621 0.54496,51.21468 -73.37403,49.55938 -73.82589,0.059 -0.12943,-10.3315 6.98454,-20.99451 14.34148,-27.92682 -16.20569,-46.97764 -19.76835,-72.84952 -28.79195,-120.00427 z"
     id="path11"
     style="stroke-width:2.27066" />
  <path
     fill="#3d9970"
     d="m 587.32969,705.45218 c -1.05132,-16.84374 6.11034,-32.0299 21.78469,-39.51853 8.09944,-3.96684 17.47271,-4.43914 25.93091,-1.30563 13.2561,4.77747 19.74337,14.31877 25.50176,26.50312 0.67893,5.61306 1.0604,8.14031 0.6812,13.73067 -4.72751,12.7452 -9.52768,22.45453 -23.22883,28.4468 -8.92823,3.84649 -19.04401,3.84649 -27.96997,0 -7.40234,-3.11535 -12.50678,-7.64758 -17.77698,-13.56491 -28.53081,11.57354 -57.54073,24.04853 -86.06701,35.24288 -0.75159,-4.30971 -2.27293,-8.44912 -4.49136,-12.21841 22.10485,-11.01496 62.30231,-28.80103 85.63559,-37.31599 z"
     id="path12"
     style="stroke-width:2.27066" />
  <path
     fill="#cb8c34"
     d="m 506.18546,754.98658 c 3.23342,18.56489 -8.22886,36.53034 -26.43045,41.41906 -18.19933,4.88873 -37.12299,-4.91824 -43.62388,-22.60439 -6.50089,-17.68843 1.56675,-37.4159 18.60123,-45.47674 17.0322,-8.0631 37.40227,-1.79836 46.96174,14.44366 2.21843,3.76929 3.73977,7.9087 4.49136,12.21841 z"
     id="path13"
     style="stroke-width:2.27066" />
  <path
     fill="#3d9970"
     d="m 381.51273,94.431803 0.81743,0.574476 c -1.5395,1.321523 -2.0504,1.650769 -3.93959,2.377379 -78.50118,30.131632 -120.45385,87.860832 -171.24392,149.763492 -8.06992,-3.32424 -12.89734,-4.5186 -21.42139,-6.678 l -5.45411,-1.37148 -0.97638,-1.88464 c 2.48864,-4.82515 7.33194,-10.49044 11.02403,-14.70251 42.23878,-48.19016 92.73367,-89.52295 152.4179,-114.08465 12.62486,-5.19527 25.50176,-10.731132 38.77603,-13.994067 z"
     id="path14"
     style="stroke-width:2.27066" />
</svg>
